<svg width="34" height="34" xmlns="http://www.w3.org/2000/svg" xmlns:xlink="http://www.w3.org/1999/xlink" xmlns:svgjs="http://svgjs.com/svgjs" viewBox="655 862 34 34"><svg width="34" height="34" xmlns="http://www.w3.org/2000/svg" xmlns:xlink="http://www.w3.org/1999/xlink" xmlns:svgjs="http://svgjs.com/svgjs" fill="#fdeee8" x="655" y="862"><svg xmlns="http://www.w3.org/2000/svg" xmlns:xlink="http://www.w3.org/1999/xlink" width="34" height="34"><path paint-order="stroke fill markers" fill-rule="evenodd" d="M17 34C7.599 34 0 26.4 0 17 0 7.599 7.599 0 17 0s17 7.599 17 17c0 9.4-7.599 17-17 17z"/></svg></svg><svg width="11" height="17" xmlns="http://www.w3.org/2000/svg" xmlns:xlink="http://www.w3.org/1999/xlink" xmlns:svgjs="http://svgjs.com/svgjs" viewBox="0.069 0 10.861 17" fill="#f4885a" x="667" y="870"><svg xmlns="http://www.w3.org/2000/svg" width="11" height="17" viewBox="0.581 0.5 9.91 15.511"><path paint-order="stroke fill markers" fill-rule="evenodd" d="M9.32 8.256a3.44 3.44 0 0 0 1.172-2.586 3.452 3.452 0 0 0-2.155-3.194V1.362a.862.862 0 0 0-1.723 0v.861H4.89v-.861a.862.862 0 0 0-1.723 0v.861H1.443a.862.862 0 1 0 0 1.724h.862v8.618h-.862a.862.862 0 1 0 0 1.723h1.724v.862a.862.862 0 0 0 1.723 0v-.862h1.724v.862a.862.862 0 1 0 1.723 0v-1.114a3.452 3.452 0 0 0 2.155-3.195A3.439 3.439 0 0 0 9.32 8.256zM4.029 3.947h3.017c.95 0 1.723.773 1.723 1.723 0 .95-.773 1.724-1.723 1.724H4.028V3.947zm3.017 8.618H4.028V9.117h3.017c.95 0 1.723.774 1.723 1.724s-.773 1.724-1.723 1.724z"/></svg></svg></svg>