<svg width="376" height="183" xmlns="http://www.w3.org/2000/svg" xmlns:xlink="http://www.w3.org/1999/xlink" xmlns:svgjs="http://svgjs.com/svgjs" viewBox="0.25 0 375.5 183" fill="#c5d4fc"><svg xmlns="http://www.w3.org/2000/svg" width="376" height="183" viewBox="0 0 375.5 183"><path paint-order="stroke fill markers" fill-rule="evenodd" d="M0 115.865c3.333-7.834 11.4-18.8 17 0 7 23.5 17.5 47.5 29 29.5s27-29.5 46-29.5c15.2 0 11.674-12.164 20-19 8.667-7.116 10-12.865 23.5-16.5 12.214-3.289 20-44.5 21-59s25.5-52.5 36.5 30.5c8.8 66.4 28.667 49 37.5 32 1.5-5.5 7.8-15.2 21-10 13.2 5.2 19.167-7.167 20.5-14 2.667-6.833 8.9-18.4 20.5-2 10 13 26-2.5 31-12s14-12.5 27.5-8.5c10.8 3.2 20.833-9.333 24.5-16V183H0v-67.135z"/></svg></svg>