<svg width="41" height="28" xmlns="http://www.w3.org/2000/svg" xmlns:xlink="http://www.w3.org/1999/xlink" xmlns:svgjs="http://svgjs.com/svgjs" viewBox="44 57 41 28"><svg width="27" height="28" xmlns="http://www.w3.org/2000/svg" xmlns:xlink="http://www.w3.org/1999/xlink" xmlns:svgjs="http://svgjs.com/svgjs" viewBox="0 0.5 27 27" fill="#544ac3" x="58" y="57"><svg xmlns="http://www.w3.org/2000/svg" xmlns:xlink="http://www.w3.org/1999/xlink" width="27" height="28" viewBox="0.119 0.453 26.881 26.881"><path paint-order="stroke fill markers" fill-rule="evenodd" d="M13.556.453a13.374 13.374 0 0 0-6.719 1.8 13.43 13.43 0 0 1 6.719 11.64H.119A13.441 13.441 0 1 0 13.556.454z"/></svg></svg><svg width="14" height="12" xmlns="http://www.w3.org/2000/svg" xmlns:xlink="http://www.w3.org/1999/xlink" xmlns:svgjs="http://svgjs.com/svgjs" viewBox="0.075 0 13.851 12" fill="#ffcf8e" x="58" y="59"><svg xmlns="http://www.w3.org/2000/svg" xmlns:xlink="http://www.w3.org/1999/xlink" width="14" height="12" viewBox="0.119 0.252 13.437 11.642"><path paint-order="stroke fill markers" fill-rule="evenodd" d="M6.837.252A13.43 13.43 0 0 0 .12 11.894h13.437A13.43 13.43 0 0 0 6.837.252z"/></svg></svg><svg width="28" height="28" xmlns="http://www.w3.org/2000/svg" xmlns:xlink="http://www.w3.org/1999/xlink" xmlns:svgjs="http://svgjs.com/svgjs" viewBox="0.001 0 27.998 28" fill="#f26c6d" x="44" y="57"><svg xmlns="http://www.w3.org/2000/svg" width="28" height="28" viewBox="0.676 0.451 26.88 26.881"><path paint-order="stroke fill markers" fill-rule="evenodd" d="M20.837 2.252a13.43 13.43 0 0 1 6.719 11.642H14.119a13.429 13.429 0 0 0 6.718 11.637 13.44 13.44 0 1 1 0-23.279z"/></svg></svg></svg>