<svg width="34" height="34" xmlns="http://www.w3.org/2000/svg" xmlns:xlink="http://www.w3.org/1999/xlink" xmlns:svgjs="http://svgjs.com/svgjs" viewBox="678 847 34 34"><svg width="34" height="34" xmlns="http://www.w3.org/2000/svg" xmlns:xlink="http://www.w3.org/1999/xlink" xmlns:svgjs="http://svgjs.com/svgjs" fill="#f1f2fb" x="678" y="847"><svg xmlns="http://www.w3.org/2000/svg" xmlns:xlink="http://www.w3.org/1999/xlink" width="34" height="34"><path paint-order="stroke fill markers" fill-rule="evenodd" d="M17 34C7.599 34 0 26.401 0 17S7.599 0 17 0s17 7.599 17 17-7.599 17-17 17z"/></svg></svg><svg width="13" height="14" xmlns="http://www.w3.org/2000/svg" xmlns:xlink="http://www.w3.org/1999/xlink" xmlns:svgjs="http://svgjs.com/svgjs" viewBox="688 857 13 14" x="688" y="857"><svg width="4" height="4" xmlns="http://www.w3.org/2000/svg" xmlns:xlink="http://www.w3.org/1999/xlink" xmlns:svgjs="http://svgjs.com/svgjs" fill="none" stroke-miterlimit="100" stroke="#4c56c0" x="693" y="862"><svg xmlns="http://www.w3.org/2000/svg" xmlns:xlink="http://www.w3.org/1999/xlink" width="4" height="4" viewBox="0.988 0.651 2.698 2.698"><path paint-order="stroke fill markers" fill-rule="evenodd" d="M3.686.65C3.146 1.19 1.663 1.776.988 2c0-.112.472 0 2.361 1.35l.337-2.7"/></svg></svg><svg width="7" height="7" xmlns="http://www.w3.org/2000/svg" xmlns:xlink="http://www.w3.org/1999/xlink" xmlns:svgjs="http://svgjs.com/svgjs" fill="#4c56c0" stroke-miterlimit="100" stroke="#4c56c0" x="694" y="857"><svg xmlns="http://www.w3.org/2000/svg" xmlns:xlink="http://www.w3.org/1999/xlink" width="7" height="7" viewBox="1 0.928 5.397 5.397"><path paint-order="stroke fill markers" fill-rule="evenodd" d="M3.698 6.325A2.696 2.696 0 0 1 1 3.627 2.696 2.696 0 0 1 3.698.928a2.696 2.696 0 0 1 2.699 2.699 2.696 2.696 0 0 1-2.699 2.698z"/></svg></svg><svg width="7" height="6" xmlns="http://www.w3.org/2000/svg" xmlns:xlink="http://www.w3.org/1999/xlink" xmlns:svgjs="http://svgjs.com/svgjs" viewBox="0.5 0 6 6" fill="#4c56c0" stroke-miterlimit="100" stroke="#4c56c0" x="688" y="861"><svg xmlns="http://www.w3.org/2000/svg" xmlns:xlink="http://www.w3.org/1999/xlink" width="7" height="6" viewBox="0.929 0.302 5.397 5.397"><path paint-order="stroke fill markers" fill-rule="evenodd" d="M3.627 5.699A2.696 2.696 0 0 1 .929 3 2.696 2.696 0 0 1 3.627.302 2.696 2.696 0 0 1 6.325 3 2.696 2.696 0 0 1 3.627 5.7z"/></svg></svg><svg width="7" height="7" xmlns="http://www.w3.org/2000/svg" xmlns:xlink="http://www.w3.org/1999/xlink" xmlns:svgjs="http://svgjs.com/svgjs" fill="#4c56c0" stroke-miterlimit="100" stroke="#4c56c0" x="694" y="864"><svg xmlns="http://www.w3.org/2000/svg" width="7" height="7" viewBox="1 0.675 5.397 5.397"><path paint-order="stroke fill markers" fill-rule="evenodd" d="M3.698 6.072A2.696 2.696 0 0 1 1 3.373 2.696 2.696 0 0 1 3.698.675a2.696 2.696 0 0 1 2.699 2.698 2.696 2.696 0 0 1-2.699 2.699z"/></svg></svg></svg></svg>